{"asset":{"version":"2.0","generator":"THREE.GLTFExporter r175"},"scenes":[{"name":"AuxScene","nodes":[12]}],"scene":0,"nodes":[{"mesh":0},{"mesh":1},{"mesh":2},{"mesh":3},{"mesh":4},{"mesh":5},{"mesh":6},{"mesh":7},{"matrix":[2.2097086912079607,0,-2.209708691207961,0,0,-3.125,0,0,2.209708691207961,0,2.2097086912079607,0,0,0,0,1],"children":[0,1,2,3,4,5,6,7]},{"children":[8]},{"matrix":[1,0,0,0,0,1,0,0,0,0,1,0,-39.25291391981664,49.84643179923296,30.41407968182041,1],"children":[9]},{"children":[10]},{"children":[11]}],"bufferViews":[{"buffer":0,"byteOffset":0,"byteLength":29376,"target":34962,"byteStride":12},{"buffer":0,"byteOffset":29376,"byteLength":19584,"target":34962,"byteStride":8},{"buffer":0,"byteOffset":48960,"byteLength":29376,"target":34962,"byteStride":12},{"buffer":0,"byteOffset":78336,"byteLength":29304,"target":34962,"byteStride":12},{"buffer":0,"byteOffset":107640,"byteLength":19536,"target":34962,"byteStride":8},{"buffer":0,"byteOffset":127176,"byteLength":29304,"target":34962,"byteStride":12},{"buffer":0,"byteOffset":156480,"byteLength":34992,"target":34962,"byteStride":12},{"buffer":0,"byteOffset":191472,"byteLength":23328,"target":34962,"byteStride":8},{"buffer":0,"byteOffset":214800,"byteLength":34992,"target":34962,"byteStride":12},{"buffer":0,"byteOffset":249792,"byteLength":35064,"target":34962,"byteStride":12},{"buffer":0,"byteOffset":284856,"byteLength":23376,"target":34962,"byteStride":8},{"buffer":0,"byteOffset":308232,"byteLength":35064,"target":34962,"byteStride":12},{"buffer":0,"byteOffset":343296,"byteLength":29376,"target":34962,"byteStride":12},{"buffer":0,"byteOffset":372672,"byteLength":19584,"target":34962,"byteStride":8},{"buffer":0,"byteOffset":392256,"byteLength":29376,"target":34962,"byteStride":12},{"buffer":0,"byteOffset":421632,"byteLength":23616,"target":34962,"byteStride":12},{"buffer":0,"byteOffset":445248,"byteLength":15744,"target":34962,"byteStride":8},{"buffer":0,"byteOffset":460992,"byteLength":23616,"target":34962,"byteStride":12},{"buffer":0,"byteOffset":484608,"byteLength":22896,"target":34962,"byteStride":12},{"buffer":0,"byteOffset":507504,"byteLength":15264,"target":34962,"byteStride":8},{"buffer":0,"byteOffset":522768,"byteLength":22896,"target":34962,"byteStride":12},{"buffer":0,"byteOffset":545664,"byteLength":22896,"target":34962,"byteStride":12},{"buffer":0,"byteOffset":568560,"byteLength":15264,"target":34962,"byteStride":8},{"buffer":0,"byteOffset":583824,"byteLength":22896,"target":34962,"byteStride":12}],"buffers":[{"byteLength":606720,"uri":"data:application/octet-stream;base64,"}],"accessors":[{"bufferView":0,"componentType":5126,"count":2448,"max":[21.289113998413086,27.67081069946289,1.600000023841858],"min":[9.761933326721191,24.440000534057617,-0.6000000238418579],"type":"VEC3"},{"bufferView":1,"componentType":5126,"count":2448,"max":[26.02330780029297,27.37053108215332],"min":[9.761933326721191,-0.6000000238418579],"type":"VEC2"},{"bufferView":2,"componentType":5126,"count":2448,"max":[0.9394703507423401,0.9999051690101624,1],"min":[-0.9905153512954712,-0.9999064207077026,-1],"type":"VEC3"},{"bufferView":3,"componentType":5126,"count":2442,"max":[21.82557487487793,24.12906837463379,1.600000023841858],"min":[8.775614738464355,21.080297470092773,-0.6000000238418579],"type":"VEC3"},{"bufferView":4,"componentType":5126,"count":2442,"max":[22.686988830566406,23.829025268554688],"min":[8.775614738464355,-0.6000000238418579],"type":"VEC2"},{"bufferView":5,"componentType":5126,"count":2442,"max":[0.9998992681503296,0.9999967813491821,1],"min":[-0.9188513159751892,-0.9999200105667114,-1],"type":"VEC3"},{"bufferView":6,"componentType":5126,"count":2916,"max":[26.57904624938965,30.775171279907227,1.600000023841858],"min":[3.6305654048919678,26.779428482055664,-0.6000000238418579],"type":"VEC3"},{"bufferView":7,"componentType":5126,"count":2916,"max":[29.66366195678711,30.474937438964844],"min":[3.9946718215942383,-0.6000000238418579],"type":"VEC2"},{"bufferView":8,"componentType":5126,"count":2916,"max":[0.9399672150611877,0.9993340969085693,1],"min":[-0.9910352826118469,-0.9999419450759888,-1],"type":"VEC3"},{"bufferView":9,"componentType":5126,"count":2922,"max":[23.026002883911133,20.725276947021484,1.600000023841858],"min":[6.12573766708374,17.330690383911133,-0.6000000238418579],"type":"VEC3"},{"bufferView":10,"componentType":5126,"count":2922,"max":[23.026002883911133,20.425146102905273],"min":[6.12573766708374,-0.6000000238418579],"type":"VEC2"},{"bufferView":11,"componentType":5126,"count":2922,"max":[0.9477569460868835,0.9997367262840271,1],"min":[-0.7062793970108032,-1,-1],"type":"VEC3"},{"bufferView":12,"componentType":5126,"count":2448,"max":[27.862049102783203,23.84880828857422,1.600000023841858],"min":[22.155662536621094,17.013853073120117,-0.6000000238418579],"type":"VEC3"},{"bufferView":13,"componentType":5126,"count":2448,"max":[27.554750442504883,23.617000579833984],"min":[17.575260162353516,-0.6000000238418579],"type":"VEC2"},{"bufferView":14,"componentType":5126,"count":2448,"max":[0.9933225512504578,0.9998819828033447,1],"min":[-0.9974418878555298,-1,-1],"type":"VEC3"},{"bufferView":15,"componentType":5126,"count":1968,"max":[27.78882598876953,32.29188537597656,1.600000023841858],"min":[7.853139400482178,28.584209442138672,-0.6000000238418579],"type":"VEC3"},{"bufferView":16,"componentType":5126,"count":1968,"max":[32.187049865722656,31.991859436035156],"min":[7.853139400482178,-0.6000000238418579],"type":"VEC2"},{"bufferView":17,"componentType":5126,"count":1968,"max":[0.9620571136474609,0.9999895691871643,1],"min":[-1,-0.9999200701713562,-1],"type":"VEC3"},{"bufferView":18,"componentType":5126,"count":1908,"max":[20.147207260131836,17.913272857666016,1.600000023841858],"min":[11.325784683227539,-0.39016902446746826,-0.6000000238418579],"type":"VEC3"},{"bufferView":19,"componentType":5126,"count":1908,"max":[19.844375610351562,17.579999923706055],"min":[-0.39016902446746826,-0.6000000238418579],"type":"VEC2"},{"bufferView":20,"componentType":5126,"count":1908,"max":[0.9913373589515686,0.812591016292572,1],"min":[-0.9998502135276794,-0.8246647715568542,-1],"type":"VEC3"},{"bufferView":21,"componentType":5126,"count":1908,"max":[23.40163803100586,18.94661521911621,1.600000023841858],"min":[15.677877426147461,6.402821063995361,-0.6000000238418579],"type":"VEC3"},{"bufferView":22,"componentType":5126,"count":1908,"max":[23.40163803100586,18.70199966430664],"min":[9.110858917236328,-0.6000000238418579],"type":"VEC2"},{"bufferView":23,"componentType":5126,"count":1908,"max":[0.9999946355819702,0.9931731820106506,1],"min":[-0.9994848370552063,-0.9999154210090637,-1],"type":"VEC3"}],"materials":[{"pbrMetallicRoughness":{"baseColorFactor":[0.6375968739867731,0.6653872982754769,0.7083757798856457,1],"metallicFactor":0,"roughnessFactor":0.3},"doubleSided":true,"extensions":{"KHR_materials_transmission":{"transmissionFactor":1},"KHR_materials_volume":{"thicknessFactor":0,"attenuationColor":[1,1,1]}}}],"meshes":[{"primitives":[{"mode":4,"attributes":{"POSITION":0,"TEXCOORD_0":1,"NORMAL":2},"material":0}]},{"primitives":[{"mode":4,"attributes":{"POSITION":3,"TEXCOORD_0":4,"NORMAL":5},"material":0}]},{"primitives":[{"mode":4,"attributes":{"POSITION":6,"TEXCOORD_0":7,"NORMAL":8},"material":0}]},{"primitives":[{"mode":4,"attributes":{"POSITION":9,"TEXCOORD_0":10,"NORMAL":11},"material":0}]},{"primitives":[{"mode":4,"attributes":{"POSITION":12,"TEXCOORD_0":13,"NORMAL":14},"material":0}]},{"primitives":[{"mode":4,"attributes":{"POSITION":15,"TEXCOORD_0":16,"NORMAL":17},"material":0}]},{"primitives":[{"mode":4,"attributes":{"POSITION":18,"TEXCOORD_0":19,"NORMAL":20},"material":0}]},{"primitives":[{"mode":4,"attributes":{"POSITION":21,"TEXCOORD_0":22,"NORMAL":23},"material":0}]}],"extensionsUsed":["KHR_materials_transmission","KHR_materials_volume"]}